<?xml version="1.0" encoding="utf-8"?>
<!-- Generator: Adobe Illustrator 25.0.0, SVG Export Plug-In . SVG Version: 6.00 Build 0)  -->
<svg version="1.1" id="Layer_1" xmlns="http://www.w3.org/2000/svg" xmlns:xlink="http://www.w3.org/1999/xlink" x="0px" y="0px"
	 viewBox="0 0 600 548.5" style="enable-background:new 0 0 600 548.5;" xml:space="preserve">
<style type="text/css">
	.st0{fill:none;stroke:#231F20;stroke-width:0.5;}
	.st1{fill:#231F20;}
	.st2{font-family:'Avenir-Medium';}
	.st3{font-size:26.823px;}
	.st4{font-family:'Avenir-Light';}
</style>
<g>
	<rect x="23.7" y="1" class="st0" width="552.9" height="444.7"/>
	<g>
		<text transform="matrix(1 0 0 1 247.333 229.4597)" class="st1 st2 st3">ercoffice</text>
	</g>
	<g>
		<text transform="matrix(1 0 0 1 269.7305 79.1765)" class="st1 st4 st3">Craft</text>
	</g>
	<g>
		<text transform="matrix(1 0 0 1 257.7529 379.0144)" class="st1 st4 st3">Design</text>
	</g>
	<g>
		<text transform="matrix(1 0 0 1 67.6924 229.4597)" class="st1 st4 st3">Factory</text>
	</g>
	<g>
		<text transform="matrix(1 0 0 1 66.4717 79.1765)" class="st1 st4 st3">Science</text>
	</g>
	<g>
		<text transform="matrix(1 0 0 1 41.9023 379.0144)" class="st1 st4 st3">Technology</text>
	</g>
	<g>
		<text transform="matrix(1 0 0 1 452.6816 229.4597)" class="st1 st4 st3">Earth</text>
	</g>
	<g>
		<text transform="matrix(1 0 0 1 442.6768 79.1765)" class="st1 st4 st3">Nature</text>
	</g>
	<g>
		<text transform="matrix(1 0 0 1 439.8867 379.0144)" class="st1 st4 st3">Culture</text>
	</g>
	<line class="st0" x1="23.7" y1="149.2" x2="576.6" y2="149.2"/>
	<line class="st0" x1="392.3" y1="1" x2="392.3" y2="445.7"/>
	<line class="st0" x1="208" y1="1" x2="208" y2="445.7"/>
	<line class="st0" x1="23.7" y1="297.5" x2="576.6" y2="297.5"/>
</g>
</svg>
